<svg xmlns="http://www.w3.org/2000/svg" viewBox="0 0 48 48"><defs><style>.cls-1{fill:#c63e3e;}.cls-2{fill:#e05555;}.cls-3{fill:#ef9d3a;}.cls-4{fill:#ffbc5a;}.cls-5{fill:#505572;}.cls-6{fill:#231f20;}</style></defs><title>Currency</title><g id="Currency"><circle class="cls-1" cx="14" cy="14" r="12"/><path class="cls-2" d="M14,24A10,10,0,1,1,24,14,10.0118,10.0118,0,0,1,14,24Z"/><circle class="cls-3" cx="34" cy="34" r="12"/><path class="cls-4" d="M34,44A10,10,0,1,1,44,34,10.0118,10.0118,0,0,1,34,44Z"/><path class="cls-5" d="M13.2422,12.9961H7a1,1,0,0,1,0-2h6.2422a1,1,0,0,1,0,2Z"/><path class="cls-5" d="M13.2422,16.9961H7a1,1,0,0,1,0-2h6.2422a1,1,0,0,1,0,2Z"/><path class="cls-5" d="M36,39H31a1,1,0,0,1,0-2h5V35H32a2.0026,2.0026,0,0,1-2-2V31a2.0026,2.0026,0,0,1,2-2h5a1,1,0,0,1,0,2H32v2h4a2.0026,2.0026,0,0,1,2,2v2A2.0026,2.0026,0,0,1,36,39Z"/><path class="cls-5" d="M34,31a.9994.9994,0,0,1-1-1V28a1,1,0,0,1,2,0v2A.9994.9994,0,0,1,34,31Z"/><path class="cls-5" d="M34,41a.9994.9994,0,0,1-1-1V38a1,1,0,0,1,2,0v2A.9994.9994,0,0,1,34,41Z"/><path class="cls-5" d="M15.0078,20.9844A6.993,6.993,0,1,1,18.7842,8.1133,1,1,0,0,1,17.7,9.7949a5.02,5.02,0,0,0-6.2354.666,4.9994,4.9994,0,0,0,0,7.0713,5.0231,5.0231,0,0,0,6.2363.666,1,1,0,0,1,1.082,1.6816A6.9676,6.9676,0,0,1,15.0078,20.9844Z"/><path class="cls-5" d="M41,17a.9994.9994,0,0,1-1-1V11a3.0033,3.0033,0,0,0-3-3H30a1,1,0,0,1,0-2h7a5.0059,5.0059,0,0,1,5,5v5A.9994.9994,0,0,1,41,17Z"/><path class="cls-5" d="M33,11a.9968.9968,0,0,1-.707-.293l-3-3a1,1,0,0,1,0-1.4141l3-3A1,1,0,0,1,33.707,4.707L31.4141,7l2.293,2.293A1,1,0,0,1,33,11Z"/><path class="cls-5" d="M18,42H11a5.0059,5.0059,0,0,1-5-5V32a1,1,0,0,1,2,0v5a3.0033,3.0033,0,0,0,3,3h7a1,1,0,0,1,0,2Z"/><path class="cls-5" d="M15,45a1,1,0,0,1-.707-1.707L16.5859,41l-2.293-2.293A1,1,0,0,1,15.707,37.293l3,3a1,1,0,0,1,0,1.4141l-3,3A.9968.9968,0,0,1,15,45Z"/><path class="cls-6" d="M26.8574,14A12.8574,12.8574,0,1,0,14,26.8574,12.8717,12.8717,0,0,0,26.8574,14Zm-24,0A11.1426,11.1426,0,1,1,14,25.1426,11.1546,11.1546,0,0,1,2.8574,14Z"/><path class="cls-6" d="M34,21.1426A12.8574,12.8574,0,1,0,46.8574,34,12.8717,12.8717,0,0,0,34,21.1426Zm0,24A11.1426,11.1426,0,1,1,45.1426,34,11.1546,11.1546,0,0,1,34,45.1426Z"/><path class="cls-6" d="M37,31a1,1,0,0,0,0-2H35V28a1,1,0,0,0-2,0v1H32a2.0026,2.0026,0,0,0-2,2v2a2.0026,2.0026,0,0,0,2,2h4v2H31a1,1,0,0,0,0,2h2v1a1,1,0,0,0,2,0V39h1a2.0026,2.0026,0,0,0,2-2V35a2.0026,2.0026,0,0,0-2-2H32V31Z"/><path class="cls-6" d="M15.0078,20.9844A6.9676,6.9676,0,0,0,18.7832,19.88a1,1,0,0,0-1.082-1.6816,4.8413,4.8413,0,0,1-6.6771-1.2021h2.2181a1,1,0,0,0,0-2H10.1011a4.9915,4.9915,0,0,1,0-2h3.1409a1,1,0,0,0,0-2H11.0249A4.84,4.84,0,0,1,17.7,9.7949a1,1,0,0,0,1.084-1.6816A6.9821,6.9821,0,0,0,8.6808,10.9961H7a1,1,0,0,0,0,2H8.0789a6.3751,6.3751,0,0,0,0,2H7a1,1,0,0,0,0,2H8.6807a6.9484,6.9484,0,0,0,6.3271,3.9883Z"/><path class="cls-6" d="M32.293,10.707A1,1,0,0,0,33.707,9.293L32.4141,8H37a3.0033,3.0033,0,0,1,3,3v5a1,1,0,0,0,2,0V11a5.0059,5.0059,0,0,0-5-5H32.4141l1.293-1.293A1,1,0,0,0,32.293,3.293l-3,3a1,1,0,0,0,0,1.4141Z"/><path class="cls-6" d="M15.707,37.293A1,1,0,0,0,14.293,38.707L15.5859,40H11a3.0033,3.0033,0,0,1-3-3V32a1,1,0,0,0-2,0v5a5.0059,5.0059,0,0,0,5,5h4.5859l-1.293,1.293A1,1,0,1,0,15.707,44.707l3-3a1,1,0,0,0,0-1.4141Z"/></g></svg>